<svg xmlns="http://www.w3.org/2000/svg" viewBox="0 0 55 62"><path fill="#FFF" d="M41.2 11.5c-3.2-2-6.2-2.7-9.3-4.7C30 5.5 27.4 2.6 25.2 0c-.4 4.1-1.7 5.8-3.2 7-3.1 2.4-5 3.1-7.7 4.5C12.2 12.7 0 19.8 0 35.2 0 50.6 13.1 62 27.8 62 42.4 62 55 51.5 55 35.7s-11.9-23-13.8-24.2zm.4 44.8c-.3.3-3.1 2.2-6.4 2.5-3.3.3-7.7.5-10.4-1.9-.4-.4-.3-1 0-1.3.3-.2.5-.4.9-.4s.3 0 .5.1c1.2 1 3 1.7 6.9 1.7 3.9 0 6.6-1.1 7.8-2 .5-.4.8-.1.8.2.2.4.3.7-.1 1.1zm-10.7-5.4c.7-.6 1.8-1.6 2.8-2 1-.4 1.6-.4 2.5-.4 1 0 2 .1 2.7.5.7.5 1.2 1.6 1.4 2.1.2.6 0 1-.5 1.2-.4.2-.5.1-.9-.7-.4-.8-.8-1.6-2.9-1.6-2.1 0-2.8.7-3.8 1.6-1 .8-1.4 1.1-1.8.7-.2-.3-.1-.8.5-1.4zm16.1.5c-2.2-.2-6.5-6.9-9.3-7-3.5-.1-11.1 7.2-17.1 7.2-3.6 0-4.7-.5-5.9-1.3-1.8-1.3-2.7-3.2-2.7-5.8.1-4.7 4.5-9 10.1-9.1 7.1-.1 12 6.9 15.6 6.9 3-.1 8.8-5.9 11.7-5.9 3 0 3.9 3.1 3.9 5 0 1.8-.6 5.2-2.1 7.3-1.6 2-2.5 2.8-4.2 2.7z"/></svg>