<svg xmlns="http://www.w3.org/2000/svg" xmlns:xlink="http://www.w3.org/1999/xlink" width="236.253" height="236.253" viewBox="0 0 236.253 236.253"><defs><path id="a" d="M117.802 0c-5.767.016-11.533.45-17.25 1.306-24.15 3.614-54.853 18.84-99.41-.074 18.95 44.54 3.75 75.255.15 99.41-.85 5.723-1.282 11.5-1.292 17.273v.425c.054 30.175 11.598 60.332 34.63 83.346 23.058 23.04 53.277 34.562 83.486 34.567h.02c30.247 0 60.483-11.545 83.55-34.63 22.99-23.01 34.515-53.137 34.567-83.283v-.44c-.06-30.17-11.604-60.32-34.63-83.33C178.643 11.61 148.563.09 118.457 0h-.658z"/></defs><clipPath id="b"><use xlink:href="#a" overflow="visible"/></clipPath><linearGradient id="c" gradientUnits="userSpaceOnUse" x1="-580.224" y1="282.189" x2="-579.224" y2="282.189" gradientTransform="matrix(209.706 196.566 -196.566 209.706 177144.453 54882.063)"><stop offset="0" stop-color="#C60066"/><stop offset=".913" stop-color="#FF631C"/><stop offset="1" stop-color="#FFBA1C"/></linearGradient><path clip-path="url(#b)" fill="url(#c)" d="M110.494-117.88l243.64 228.374-228.375 243.64-243.64-228.375"/><defs><path id="d" d="M0 0h236.253v236.253H0z"/></defs><clipPath id="e"><use xlink:href="#d" overflow="visible"/></clipPath><path clip-path="url(#e)" fill="#FFF" d="M150.29 127.186c1.94 1.976 4.63 2.767 7.173 2.364l.15-.02c1.58-.28 3.102-1.02 4.334-2.23 3.248-3.19 3.293-8.41.105-11.66L104.468 57c-1.95-1.988-4.662-2.78-7.216-2.363l-.057.01c-1.6.27-3.136 1.022-4.38 2.24-3.25 3.193-3.298 8.412-.11 11.66l57.585 58.642v-.01zM66.838 77.492l24.8 25.256c1.96 1.994 4.684 2.782 7.25 2.354 1.61-.27 3.155-1.02 4.41-2.248 3.243-3.19 3.294-8.408.106-11.654l-24.8-25.26c-1.96-1.993-4.685-2.78-7.248-2.352-1.61.27-3.157 1.016-4.408 2.25-3.252 3.188-3.298 8.406-.11 11.654m35.543 71.485c1.96 1.995 4.68 2.784 7.25 2.356h.01c1.61-.27 3.16-1.02 4.41-2.246 3.25-3.19 3.3-8.41.11-11.658L69.71 92.18c-1.96-1.994-4.683-2.78-7.248-2.353-1.61.27-3.156 1.015-4.41 2.248-1.98 1.94-2.77 4.636-2.367 7.18l.02.126c.28 1.59 1.026 3.12 2.24 4.36l44.435 45.25v-.01zm-31 3.726c1.94 1.967 4.62 2.76 7.15 2.366l.19-.04c1.58-.28 3.09-1.03 4.32-2.23 1.99-1.95 2.78-4.66 2.36-7.21l-.01-.09c-.28-1.59-1.03-3.13-2.24-4.36L65.71 123.4c-1.96-1.99-4.68-2.78-7.246-2.352-1.61.27-3.16 1.02-4.414 2.25-3.25 3.19-3.294 8.406-.1 11.656L71.37 152.7l.005.003z"/><defs><path id="f" d="M0 0h236.253v236.253H0z"/></defs><clipPath id="g"><use xlink:href="#f" overflow="visible"/></clipPath><path clip-path="url(#g)" fill="#FFF" d="M192.935 76.99c-.36-.69-.83-1.338-1.398-1.92l-14.623-14.893c-1.94-1.973-4.623-2.764-7.162-2.367l-.172.03c-1.58.28-3.1 1.023-4.33 2.23-3.25 3.192-3.3 8.41-.11 11.657l5.63 5.738s.7.717 1.84 2.06c.27.17.54.365.77.607l27.156 27.652c1.596 1.623 1.57 4.234-.056 5.83-.625.616-1.4.987-2.202 1.12-1.287.215-2.648-.18-3.626-1.173l-7.38-7.51-.16-.16c-1.967-1.99-4.69-2.78-7.25-2.35-1.61.27-3.16 1.02-4.41 2.25-3.25 3.19-3.3 8.41-.11 11.66l14.04 14.3-.002.02 11.873 12.09c1.597 1.62 1.567 4.24-.054 5.83-.63.61-1.4.99-2.21 1.13-1.29.22-2.65-.18-3.63-1.18l-8.56-8.71c-1.94-1.83-4.56-2.54-7.02-2.13-1.61.27-3.15 1.02-4.4 2.24-3.25 3.19-3.3 8.41-.11 11.66l14.22 14.48c1.59 1.63 1.57 4.24-.06 5.83-.63.617-1.4.99-2.208 1.126-1.278.21-2.644-.18-3.624-1.175l-19.5-19.86c-1.956-1.99-4.68-2.78-7.24-2.35-1.61.27-3.156 1.01-4.41 2.24-3.25 3.19-3.298 8.41-.11 11.66l9.667 9.84-.01.01 9.84 10.02c1.594 1.63 1.57 4.23-.055 5.83-.63.617-1.4.99-2.208 1.126-1.28.216-2.64-.18-3.62-1.175l-27.91-28.42c-1.94-1.83-4.56-2.543-7.02-2.13-1.607.27-3.15 1.01-4.4 2.243-3.25 3.19-3.296 8.4-.106 11.655l6.5 6.62-.02-.01 15.32 15.59c1.59 1.62 1.57 4.232-.06 5.83-.625.613-1.4.99-2.204 1.123-1.28.217-2.64-.18-3.62-1.18l-31.87-32.46c-.116-.12-.2-.25-.3-.38-.39-.36-.776-.74-1.15-1.12l-.868-.876-6.974-7.11c-1.963-1.99-4.69-2.78-7.25-2.354-1.61.27-3.156 1.012-4.41 2.243-3.245 3.19-3.293 8.41-.106 11.66l21.006 21.39-.01.01 1.655 1.69c1.6 1.62 1.57 4.23-.05 5.83-.62.61-1.39.99-2.2 1.122-1.28.21-2.64-.18-3.62-1.18L90.42 183.9l-.1-.12-22.57-22.99-.027.024L62 154.97c-1.956-2-4.68-2.787-7.24-2.36-1.61.27-3.16 1.02-4.41 2.25-1.96 1.924-2.757 4.595-2.38 7.117l.042.264c.288 1.56 1.03 3.06 2.228 4.28l24.8 25.26c.228.23.46.44.71.64 18.167 17.19 44.67 25.93 70.52 21.668l.28-.045c15.377-2.6 30.51-9.8 43.52-22.573 35.017-34.38 29.505-85.38 2.875-114.45"/><defs><path id="h" d="M0 0h236.253v236.253H0z"/></defs><clipPath id="i"><use xlink:href="#h" overflow="visible"/></clipPath><path clip-path="url(#i)" fill="#FFF" d="M141.535 135.057c-1.61.27-3.158 1.02-4.412 2.247-3.25 3.188-3.297 8.406-.104 11.658 1.95 1.994 4.68 2.78 7.24 2.352 1.61-.27 3.15-1.018 4.41-2.247 3.24-3.19 3.29-8.407.1-11.66-1.97-1.995-4.68-2.778-7.25-2.35m-82.39-70.19c1.61-.27 3.16-1.02 4.41-2.25 1.96-1.934 2.76-4.613 2.37-7.144l-.04-.204c-.28-1.58-1.03-3.09-2.23-4.31-1.96-2-4.69-2.79-7.25-2.36-1.61.27-3.16 1.02-4.41 2.25-1.97 1.93-2.76 4.61-2.38 7.14l.03.2c.28 1.57 1.02 3.08 2.23 4.3 1.95 1.99 4.68 2.78 7.24 2.35m99.16 32.96l.04.25c.29 1.56 1.03 3.06 2.23 4.28 1.93 1.97 4.613 2.76 7.15 2.37l.19-.03c1.573-.28 3.09-1.03 4.32-2.24 3.242-3.19 3.29-8.41.1-11.66-1.96-1.99-4.686-2.78-7.246-2.35-1.613.27-3.16 1.02-4.414 2.25-1.965 1.92-2.76 4.59-2.375 7.12m-47.97 5.45c-1.614.27-3.16 1.02-4.413 2.25-1.964 1.93-2.76 4.6-2.37 7.14l.04.22c.283 1.57 1.026 3.07 2.23 4.3l9.37 9.54c1.95 1.98 4.66 2.77 7.21 2.36l.08-.01c1.595-.28 3.13-1.03 4.37-2.25 3.25-3.19 3.297-8.41.11-11.657l-9.37-9.543c-1.96-1.996-4.68-2.78-7.24-2.356m20.27-33.69l.05.32c.29 1.55 1.03 3.04 2.22 4.25L145.1 86.6c1.95 1.985 4.66 2.777 7.21 2.36l.07-.01c1.596-.274 3.13-1.02 4.373-2.243 3.248-3.19 3.293-8.41.105-11.652L144.632 62.6c-1.94-1.974-4.63-2.765-7.17-2.366l-.154.026c-1.58.28-3.094 1.024-4.33 2.235-1.95 1.916-2.75 4.567-2.38 7.082m-11.753-9.71c1.96 1.994 4.683 2.78 7.242 2.354 1.615-.27 3.16-1.01 4.41-2.24 3.25-3.19 3.3-8.41.108-11.65l-3.12-3.17c-1.96-1.99-4.68-2.78-7.244-2.35-1.61.27-3.15 1.02-4.4 2.25-1.96 1.93-2.76 4.6-2.37 7.12l.05.26c.29 1.57 1.03 3.06 2.23 4.28l3.12 3.18v-.02z"/></svg>