<svg xmlns="http://www.w3.org/2000/svg" xmlns:xlink="http://www.w3.org/1999/xlink" width="236.253" height="236.253" viewBox="0 0 236.253 236.253"><defs><path id="a" d="M117.802 0c-5.767.016-11.533.45-17.25 1.306-24.15 3.614-54.853 18.84-99.41-.074 18.95 44.54 3.75 75.255.15 99.41-.85 5.723-1.282 11.5-1.292 17.273v.425c.054 30.175 11.598 60.332 34.63 83.346 23.058 23.04 53.277 34.562 83.486 34.567h.02c30.246 0 60.482-11.545 83.55-34.63 22.992-23.01 34.515-53.136 34.567-83.282v-.44c-.06-30.17-11.604-60.32-34.63-83.33C178.643 11.61 148.565.09 118.458 0h-.658z"/></defs><clipPath id="b"><use xlink:href="#a" overflow="visible"/></clipPath><linearGradient id="c" gradientUnits="userSpaceOnUse" y1="236.253" x2="1" y2="236.253" gradientTransform="matrix(209.706 196.566 196.566 -209.706 -46440.016 49550.359)"><stop offset="0" stop-color="#C60066"/><stop offset=".913" stop-color="#FF631C"/><stop offset="1" stop-color="#FFBA1C"/></linearGradient><path clip-path="url(#b)" fill="url(#c)" d="M110.494-117.88l243.64 228.374-228.374 243.64-243.64-228.374"/><defs><path id="d" d="M0 0h236.253v236.253H0z"/></defs><clipPath id="e"><use xlink:href="#d" overflow="visible"/></clipPath><path clip-path="url(#e)" fill="#FFF" d="M150.29 127.186c1.94 1.975 4.63 2.767 7.172 2.365l.152-.02c1.58-.28 3.1-1.02 4.333-2.23 3.248-3.19 3.293-8.41.105-11.66L104.468 57c-1.95-1.988-4.662-2.78-7.216-2.363l-.057.01c-1.6.27-3.136 1.022-4.38 2.24-3.25 3.193-3.298 8.412-.11 11.66l57.585 58.642zM66.837 77.492l24.8 25.256c1.96 1.994 4.684 2.782 7.25 2.354 1.61-.27 3.155-1.02 4.41-2.248 3.243-3.19 3.294-8.408.106-11.654l-24.8-25.26c-1.96-1.993-4.685-2.78-7.248-2.352-1.61.27-3.157 1.016-4.408 2.25-3.252 3.188-3.298 8.406-.11 11.654m35.543 71.485c1.96 1.995 4.68 2.785 7.242 2.357h.006c1.61-.27 3.157-1.02 4.408-2.247 3.25-3.19 3.296-8.41.11-11.658L69.71 92.18c-1.96-1.994-4.683-2.78-7.248-2.353-1.61.27-3.156 1.015-4.41 2.248-1.98 1.94-2.77 4.636-2.367 7.18l.02.126c.28 1.59 1.026 3.12 2.24 4.36l44.435 45.248zm-31.005 3.725c1.934 1.968 4.615 2.76 7.15 2.367l.192-.04c1.575-.28 3.087-1.028 4.315-2.23 1.983-1.95 2.774-4.658 2.362-7.21l-.015-.09c-.28-1.59-1.03-3.122-2.24-4.36L65.71 123.4c-1.96-1.99-4.68-2.78-7.246-2.352-1.61.27-3.16 1.02-4.414 2.25-3.25 3.19-3.294 8.406-.1 11.657L71.37 152.7z"/><path clip-path="url(#e)" fill="#FFF" d="M192.935 76.99c-.36-.69-.83-1.338-1.398-1.92l-14.623-14.893c-1.94-1.973-4.624-2.764-7.162-2.367l-.173.03c-1.58.28-3.1 1.023-4.33 2.23-3.25 3.192-3.3 8.41-.11 11.657l5.634 5.738s.7.717 1.84 2.06c.273.17.54.365.775.607l27.154 27.652c1.596 1.623 1.57 4.234-.055 5.83-.626.616-1.4.987-2.203 1.12-1.286.215-2.647-.18-3.625-1.173l-7.38-7.51-.16-.163c-1.966-1.993-4.69-2.78-7.25-2.352-1.61.27-3.158 1.018-4.41 2.25-3.25 3.187-3.3 8.407-.108 11.655l14.04 14.296-.004.02 11.875 12.09c1.597 1.62 1.568 4.236-.053 5.83-.626.61-1.4.99-2.206 1.124-1.283.213-2.645-.184-3.625-1.18l-8.553-8.71c-1.94-1.83-4.558-2.545-7.02-2.135-1.607.27-3.15 1.015-4.4 2.244-3.246 3.19-3.297 8.41-.106 11.654l14.215 14.476c1.594 1.628 1.57 4.238-.054 5.83-.625.616-1.397.99-2.204 1.125-1.277.212-2.643-.18-3.624-1.177l-19.5-19.863c-1.955-1.99-4.68-2.78-7.24-2.35-1.61.27-3.156 1.014-4.41 2.245-3.25 3.19-3.297 8.41-.11 11.66l9.667 9.84-.014.01 9.84 10.02c1.595 1.623 1.57 4.232-.054 5.825-.63.615-1.4.988-2.207 1.123-1.28.212-2.64-.18-3.62-1.178l-27.91-28.42c-1.94-1.83-4.56-2.543-7.02-2.132-1.604.268-3.148 1.01-4.4 2.245-3.247 3.19-3.293 8.403-.103 11.656l6.5 6.623-.026-.01 15.315 15.596c1.59 1.62 1.57 4.234-.06 5.83-.627.615-1.4.99-2.206 1.125-1.28.216-2.642-.18-3.62-1.177l-31.87-32.46c-.116-.12-.203-.25-.303-.38-.39-.364-.774-.74-1.15-1.125l-.866-.878-6.974-7.106c-1.964-1.993-4.688-2.78-7.25-2.354-1.61.27-3.157 1.016-4.41 2.247-3.246 3.19-3.294 8.408-.107 11.656l21.008 21.393-.01.008 1.654 1.69c1.597 1.626 1.57 4.237-.053 5.834-.623.61-1.395.988-2.202 1.123-1.282.213-2.643-.18-3.623-1.18l-15.88-16.176-.102-.122-22.57-22.99-.026.024-5.73-5.835c-1.958-1.996-4.682-2.785-7.245-2.356-1.61.27-3.16 1.02-4.41 2.25-1.96 1.923-2.754 4.593-2.38 7.116l.047.262c.286 1.564 1.03 3.06 2.226 4.28l24.8 25.256c.226.23.462.437.71.632 18.165 17.19 44.667 25.934 70.52 21.666l.276-.046c15.376-2.597 30.51-9.8 43.52-22.574 35.017-34.382 29.506-85.383 2.874-114.454"/><path clip-path="url(#e)" fill="#FFF" d="M141.535 135.057c-1.612.27-3.158 1.02-4.413 2.247-3.25 3.188-3.296 8.407-.104 11.658 1.957 1.994 4.68 2.78 7.246 2.352 1.61-.27 3.155-1.017 4.41-2.247 3.245-3.19 3.293-8.408.105-11.66-1.97-1.995-4.68-2.778-7.25-2.35m-82.39-70.19c1.61-.27 3.16-1.02 4.41-2.25 1.962-1.934 2.76-4.613 2.37-7.144l-.04-.204c-.28-1.58-1.023-3.09-2.23-4.31-1.96-2-4.682-2.79-7.242-2.36-1.61.27-3.157 1.02-4.41 2.25-1.97 1.93-2.76 4.61-2.373 7.14l.034.2c.28 1.573 1.023 3.08 2.23 4.308 1.956 1.995 4.68 2.783 7.243 2.356m99.16 32.96l.043.254c.29 1.567 1.03 3.066 2.228 4.285 1.932 1.97 4.615 2.763 7.15 2.37l.19-.03c1.575-.28 3.09-1.026 4.32-2.234 3.244-3.19 3.29-8.406.1-11.655-1.96-1.993-4.683-2.78-7.244-2.353-1.614.27-3.16 1.02-4.414 2.25-1.964 1.927-2.76 4.594-2.375 7.12m-47.97 5.45c-1.614.27-3.16 1.02-4.413 2.25h-.002c-1.966 1.93-2.76 4.606-2.373 7.14l.04.22c.283 1.57 1.026 3.074 2.23 4.3l9.367 9.54c1.954 1.984 4.66 2.773 7.213 2.36l.077-.01c1.597-.275 3.13-1.023 4.373-2.246 3.25-3.19 3.295-8.41.106-11.654l-9.37-9.543c-1.957-1.996-4.68-2.78-7.24-2.356M130.6 69.58l.052.32c.29 1.55 1.03 3.04 2.22 4.25l12.23 12.457c1.95 1.984 4.66 2.776 7.21 2.36l.07-.012c1.598-.273 3.13-1.02 4.376-2.242 3.247-3.19 3.293-8.41.105-11.653L144.636 62.6c-1.94-1.974-4.63-2.765-7.17-2.366l-.155.026c-1.58.28-3.097 1.024-4.33 2.235-1.955 1.916-2.75 4.567-2.38 7.082m-11.756-9.71c1.96 1.994 4.685 2.78 7.245 2.354 1.612-.27 3.156-1.01 4.41-2.24 3.247-3.19 3.296-8.41.105-11.652l-3.12-3.177c-1.958-1.99-4.68-2.78-7.244-2.353-1.61.27-3.156 1.02-4.407 2.245-1.96 1.93-2.758 4.597-2.374 7.12l.042.257c.29 1.564 1.03 3.06 2.23 4.28l3.12 3.177z"/></svg>