<svg xmlns="http://www.w3.org/2000/svg" viewBox="0 0 48 50"><path fill="#FFF" d="M29.5 24.5c.6.6 1.3.8 2.1.7.5-.1.9-.3 1.2-.6.9-.9.9-2.4 0-3.4l-16.6-17c-.6-.6-1.3-.8-2.1-.7-.5.1-.9.3-1.3.6-.8.9-.8 2.5.1 3.4l16.6 17zm-24-14.4l7.1 7.3c.6.6 1.3.8 2.1.7.5-.1.9-.3 1.3-.7.9-.9.9-2.4 0-3.4L8.8 6.7c-.5-.5-1.3-.8-2-.6-.5 0-.9.3-1.3.6-.9.9-1 2.5 0 3.4zm12.3 21.4c.5-.1.9-.3 1.3-.7.9-.9.9-2.4 0-3.4l-12.8-13c-.6-.6-1.3-.8-2.1-.7-.5.1-.9.3-1.3.7-.6.6-.8 1.3-.7 2.1.1.5.3.9.6 1.3l12.8 13.1c.7.5 1.4.7 2.2.6zm-7.6-2.9l-5-5.1c-.6-.6-1.3-.8-2.1-.7-.5.1-.9.3-1.3.7-.9.9-.9 2.4 0 3.4l5 5.1c.6.6 1.3.8 2.1.7H9c.5-.1.9-.3 1.2-.6.6-.6.8-1.3.7-2.1-.2-.6-.4-1.1-.7-1.4zM41.8 9.9c-.1-.2-.2-.4-.4-.6L37.2 5c-.6-.6-1.3-.8-2.1-.7-.5.1-.9.3-1.2.6-.9.9-.9 2.4 0 3.4l1.6 1.7s.2.2.5.6c.1 0 .2.1.2.2l7.8 8c.5.5.5 1.2 0 1.7-.2.2-.4.3-.6.3-.4.1-.8-.1-1-.3l-2.1-2.2c-.6-.6-1.3-.8-2.1-.7-.5.1-.9.3-1.3.7-.9.9-.9 2.4 0 3.4l4 4.1 3.4 3.5c.5.5.5 1.2 0 1.7-.2.2-.4.3-.6.3-.4.1-.8-.1-1-.3L40 28.5c-.6-.5-1.3-.7-2-.6-.5.1-.9.3-1.3.7-.9.9-.9 2.4 0 3.4l4.1 4.2c.5.5.5 1.2 0 1.7-.2.2-.4.3-.6.3-.4.1-.8-.1-1-.3L33.5 32c-.6-.6-1.3-.8-2.1-.7-.5.1-.9.3-1.3.7-.9.9-.9 2.4 0 3.4l2.8 2.9 2.8 2.9c.5.5.5 1.2 0 1.7-.2.2-.4.3-.6.3-.4.1-.8-.1-1-.3l-8-8.2c-.6-.5-1.3-.7-2-.6-.5.1-.9.3-1.3.7-.9.9-.9 2.4 0 3.4l1.9 1.9 4.4 4.5c.5.5.5 1.2 0 1.7-.2.2-.4.3-.6.3-.4.1-.8-.1-1-.3l-9.2-9.4-.1-.1-.3-.3-.5-.5-2-2.1c-.6-.6-1.3-.8-2.1-.7-.5.1-.9.3-1.3.7-.9.9-.9 2.4 0 3.4l6 6.2.5.5c.5.5.5 1.2 0 1.7-.2.2-.4.3-.6.3-.4.1-.8-.1-1-.3L12.3 41l-6.5-6.7-1.6-1.7c-.7-.6-1.5-.8-2.2-.7-.5.1-.9.3-1.3.7-.6.6-.8 1.3-.7 2.1v.1c.1.5.3.9.6 1.2l7.1 7.3c.2 0 .3.1.3.1 5.2 5 12.9 7.5 20.3 6.3h.1c4.4-.8 8.8-2.8 12.5-6.5 10.1-10 8.5-24.8.9-33.3zM27 26.8c-.5.1-.9.3-1.3.7-.9.9-.9 2.4 0 3.4.6.6 1.3.8 2.1.7.5-.1.9-.3 1.3-.7.9-.9.9-2.4 0-3.4-.6-.6-1.4-.8-2.1-.7zM.5 4.5c.1.5.3.9.7 1.3.6.6 1.3.8 2.1.7.5-.1.9-.3 1.3-.7.6-.6.8-1.3.7-2.1v-.1c-.2-.4-.4-.8-.8-1.2-.5-.6-1.3-.8-2-.7-.5.1-.9.3-1.3.7-.6.5-.8 1.3-.7 2.1zM31.8 16c.1.5.3 1 .7 1.3.6.6 1.3.8 2.1.7h.1c.5-.1.9-.3 1.2-.6.9-.9.9-2.4 0-3.4-.6-.6-1.3-.8-2.1-.7-.5.1-.9.3-1.3.7-.6.5-.8 1.3-.7 2zm-10.3 9.1c.5-.1.9-.3 1.3-.7.9-.9.9-2.4 0-3.4l-2.7-2.8c-.6-.6-1.3-.8-2.1-.7-.5.1-.9.3-1.3.7-.6.6-.8 1.3-.7 2.1v.1c.1.5.3.9.6 1.2l2.7 2.8c.6.5 1.4.8 2.2.7zm2.3-17.3c.1.5.3 1 .7 1.3l3.5 3.6c.6.6 1.3.8 2.1.7.5-.1.9-.3 1.3-.6.9-.9.9-2.4 0-3.4l-3.5-3.6c-.6-.6-1.3-.8-2.1-.7-.5.1-.9.3-1.2.6-.7.6-.9 1.4-.8 2.1zm-4.9-5c.1.5.3.9.6 1.2l.9 1c.6.6 1.3.8 2.1.7.5-.1.9-.3 1.3-.7.9-.9.9-2.4 0-3.4l-.9-.9c-.6-.6-1.3-.8-2.1-.7-.5.1-.9.3-1.3.7-.5.5-.7 1.3-.6 2.1z"/></svg>