<svg xmlns="http://www.w3.org/2000/svg" width="24" height="19.656" viewBox="0 0 24 19.656"><path d="M24 2.5c-.404.222-1.617.668-2.746.78.725-.392 1.798-1.672 2.062-2.69-.697.447-2.298 1.095-3.088 1.095v.002C19.328.744 18.058 0 16.65 0c-2.734 0-4.732 2.373-4.732 5.106 0 .38.044.75.125 1.105C8.333 6.12 4.058 4.07 1.615.89c-1.5 2.6-.202 5.676 1.502 6.73-.583.044-1.657-.067-2.162-.56-.034 1.724.795 4.01 3.82 4.838-.583.313-1.614.224-2.063.157.157 1.458 2.196 3.36 4.426 3.36-.795.92-3.785 2.587-7.14 2.056 2.278 1.39 4.935 2.19 7.745 2.19 7.988 0 14.535-6.47 14.2-14.46v-.09c0-.02 0-.05-.002-.07.73-.5 1.36-1.38 2.06-2.54z"/></svg>