<?xml version="1.0" encoding="utf-8"?>
<!-- Generator: Adobe Illustrator 18.0.0, SVG Export Plug-In . SVG Version: 6.00 Build 0)  -->
<!DOCTYPE svg PUBLIC "-//W3C//DTD SVG 1.1//EN" "http://www.w3.org/Graphics/SVG/1.1/DTD/svg11.dtd">
<svg version="1.1" id="Layer_1" xmlns="http://www.w3.org/2000/svg" xmlns:xlink="http://www.w3.org/1999/xlink" x="0px" y="0px"
	 viewBox="0 0 73 138" enable-background="new 0 0 73 138" xml:space="preserve">
<g>
	<g>
		<g>
			<path fill="#EF4137" d="M36.1,20.4c-0.6-0.3-1.3-0.5-2-0.5c-1.4,0-2.7,0.8-3.4,2l-0.5,0.9c-0.5,0.9-0.7,2-0.4,3
				c0.3,1,0.9,1.9,1.8,2.4c0.6,0.3,1.3,0.5,2,0.5c1.4,0,2.7-0.8,3.4-2l0.5-0.9C38.6,23.8,37.9,21.4,36.1,20.4z"/>
			<path fill="#EF4137" d="M28.1,39.8c0.3,0.1,0.6,0.1,0.9,0.1c1.8,0,3.4-1.2,3.8-3l0.1-0.4c0.1-0.5,0.2-0.9,0.3-1.4
				c0.6-2.1-0.7-4.2-2.8-4.8c-0.3-0.1-0.7-0.1-1-0.1c-1.8,0-3.3,1.2-3.8,2.9c-0.1,0.5-0.3,1.1-0.4,1.6l-0.1,0.4
				c-0.2,1-0.1,2.1,0.5,3C26.3,38.9,27.1,39.6,28.1,39.8z"/>
			<path fill="#EF4137" d="M27.5,52.1L27.5,52.1c2.2,0,3.9-1.7,4-3.9c0-0.3,0-0.7,0-1l0-0.8c0.1-2.2-1.6-4-3.7-4.1
				c-2.2-0.1-4,1.6-4.1,3.7c0,0.3,0,0.6,0,0.9c0,0.4,0,0.7,0,1.1C23.6,50.3,25.4,52,27.5,52.1z M27.6,51.6L27.6,51.6L27.6,51.6
				L27.6,51.6z"/>
			<path fill="#EF4137" d="M32.5,59.5c-0.1-0.6-0.2-1.1-0.3-1.7c-0.4-2.1-2.3-3.6-4.5-3.2c-1,0.2-1.9,0.7-2.5,1.6
				c-0.6,0.9-0.8,1.9-0.7,2.9c0.1,0.7,0.2,1.4,0.4,2.1c0.4,1.8,2,3.1,3.8,3.1c0.3,0,0.5,0,0.8-0.1C31.6,63.8,33,61.7,32.5,59.5z"/>
			<path fill="#EF4137" d="M35.7,67.4c-0.7-0.9-1.9-1.5-3.1-1.5c-0.9,0-1.8,0.3-2.4,0.9c-1.7,1.4-2,3.8-0.6,5.5
				c0.3,0.4,0.6,0.7,0.9,1.1c0.7,0.8,1.7,1.2,2.8,1.2c1,0,2-0.4,2.8-1.1c0.7-0.7,1.2-1.7,1.2-2.8c0-1-0.4-2-1.1-2.8
				C35.9,67.7,35.8,67.6,35.7,67.4z"/>
		</g>
		<g>
			<path fill="#EF4137" d="M36.5,86.3C16.4,86.3,0,70,0,49.9C0,44,1.5,38.2,4.2,33c1.8-3.5,4.2-6.7,7.1-9.6c2.6-2.5,5.4-4.6,8.1-6.6
				l1.1-0.8c1.6-1.2,3.7-0.8,4.9,0.7c1.2,1.5,0.8,3.7-0.7,4.9l-1.1,0.8c-2.7,2-5.2,3.8-7.4,6c-2.4,2.3-4.3,4.9-5.8,7.8
				C8.2,40.5,7,45.1,7,49.9c0,16.2,13.2,29.4,29.4,29.4c16.2,0,29.4-13.2,29.4-29.4c0-5.9-1.7-11.6-5-16.5c-1.5-2.3-3.4-4.4-5.5-6.2
				c-2-1.7-4.1-3.3-6.2-4.8l-1-0.8c-0.5-0.4-1-0.7-1.4-1.1c-2.3-1.7-4.7-3.5-6.9-5.7c-2.7-2.7-4.7-5.6-6.1-8.6l-0.5-1.2
				c-0.8-1.8,0-3.8,1.8-4.6c1.8-0.8,3.8,0,4.6,1.8l0.5,1.2c1,2.3,2.5,4.4,4.6,6.5c1.8,1.8,3.9,3.4,6.1,5c0.5,0.4,1,0.7,1.5,1.1
				l1,0.8c2.1,1.6,4.4,3.3,6.5,5.1c2.7,2.3,5,4.8,6.8,7.7c4.1,6,6.2,13,6.2,20.4C72.9,70,56.6,86.3,36.5,86.3z"/>
		</g>
	</g>
	<g>
		<g>
			<path fill="#EF4137" d="M2.5,99.4h3.8V116H2.5V99.4z"/>
		</g>
		<g>
			<path fill="#EF4137" d="M27.7,115.9h-3.8v-5.8l-5.8,5.8h-3.8v-2.3l4.1-4.1h-4.1V99.4h13.3V115.9z M18.2,103.2v2.6h5.8v-2.6H18.2z
				"/>
		</g>
		<g>
			<path fill="#EF4137" d="M35.8,99.4h13.3v16.5H35.8V99.4z M39.6,103.2l0,8.9h5.7v-8.9H39.6z"/>
		</g>
		<g>
			<path fill="#EF4137" d="M70.5,115.9h-3.8v-9l-5.8,5.8v3.2h-3.8V99.4h3.8v7.5l5.8-5.8v-1.7h3.8V115.9z"/>
		</g>
		<g>
			<path fill="#EF4137" d="M2.5,120.7h13.3v3.8H6.3l0,8.9h9.6v3.8H2.5V120.7z"/>
		</g>
		<g>
			<path fill="#EF4137" d="M20.6,120.7h13.3v16.5h-3.8V134h-5.8v3.2h-3.8V120.7z M24.4,124.5v5.8h5.8v-5.8H24.4z"/>
		</g>
		<g>
			<path fill="#EF4137" d="M38.9,120.7h2.5l4.2,4.2l4.2-4.2h2.4v16.5h-3.8v-8.8l-2.4,2.4h-0.9l-2.4-2.4v8.8h-3.8V120.7z"/>
		</g>
		<g>
			<path fill="#EF4137" d="M57.1,120.7h13.3v10.2h-9.6v6.4h-3.8V120.7z M60.9,124.5v2.6h5.8v-2.6H60.9z"/>
		</g>
	</g>
</g>
</svg>
